<?xml version="1.0" encoding="UTF-8"?>
<svg width="400px" height="104px" viewBox="0 0 400 104" version="1.1" xmlns="http://www.w3.org/2000/svg" xmlns:xlink="http://www.w3.org/1999/xlink">
    <!-- Generator: Sketch 47 (45396) - http://www.bohemiancoding.com/sketch -->
    <title>Artboard</title>
    <desc>Created with Sketch.</desc>
    <defs>
        <linearGradient x1="-11.8142003%" y1="109.480744%" x2="118.284256%" y2="-19.2972756%" id="linearGradient-1">
            <stop stop-color="#7882BE" offset="0%"></stop>
            <stop stop-color="#00A0BE" offset="50.522162%"></stop>
            <stop stop-color="#78C8A0" offset="100%"></stop>
        </linearGradient>
        <linearGradient x1="0%" y1="96.214392%" x2="100%" y2="0%" id="linearGradient-2">
            <stop stop-color="#7882BE" offset="0%"></stop>
            <stop stop-color="#00A0BE" offset="50.522162%"></stop>
            <stop stop-color="#78C8A0" offset="100%"></stop>
        </linearGradient>
    </defs>
    <g id="store-design-01" stroke="none" stroke-width="1" fill="none" fill-rule="evenodd">
        <g id="Artboard">
            <g id="Group-5">
                <g id="text" transform="translate(121.823533, 28.425491)">
                    <polygon id="Fill-60" fill="#323232" points="16.9870504 46.4684876 0.222033618 12.644118 8.17459677 12.644118 16.9870504 31.3333077 25.7397103 12.644118 33.7520671 12.644118"></polygon>
                    <path d="M40.9031099,45.5025545 L48.2975984,45.5025545 L48.2975984,12.6418898 L40.9031099,12.6418898 L40.9031099,45.5025545 Z M41.5209782,2.15254726 C43.2464538,0.464671105 46.0823839,0.464671105 47.8078595,2.15254726 C49.4735413,3.84042341 49.4735413,6.61455649 47.8078595,8.30243264 C46.0823839,9.99030879 43.2464538,9.99030879 41.5209782,8.30243264 C39.7926553,6.61455649 39.7926553,3.84042341 41.5209782,2.15254726 L41.5209782,2.15254726 Z" id="Fill-61" fill="#323232"></path>
                    <path d="M70.2450213,36.5802072 C72.2182136,38.630169 74.6839923,39.6551499 77.6395098,39.6551499 C80.600722,39.6551499 83.0665006,38.630169 85.0994867,36.5189312 C87.1324728,34.4689694 88.1204926,31.9984312 88.1204926,29.0432553 C88.1204926,26.0880794 87.1324728,23.5562652 85.0994867,21.4450274 C83.0665006,19.3365748 80.600722,18.3115939 77.6395098,18.3115939 C74.806427,18.3115939 72.4004421,19.3365748 70.367456,21.4450274 C68.3344699,23.5562652 67.2866564,26.0880794 67.2866564,29.0432553 C67.2866564,31.9984312 68.2718289,34.5302454 70.2450213,36.5802072 L70.2450213,36.5802072 Z M67.0389396,45.5042257 L60.1370373,45.5042257 L60.1370373,0.282514173 L67.4090911,0.282514173 L67.4090911,16.7434846 C69.689794,13.6685419 73.6959724,11.7383469 77.8872266,11.7383469 C82.7589901,11.7383469 86.8876033,13.426223 90.2759134,16.7434846 C93.6670708,20.0579608 95.3327527,24.1578844 95.3327527,29.0432553 C95.3327527,33.987117 93.6670708,38.0870406 90.3385544,41.4043021 C86.947397,44.7187784 82.8187838,46.3481638 77.8872266,46.3481638 C73.7586134,46.3481638 69.689794,44.4792448 67.4090911,41.4043021 L67.0389396,45.5042257 Z" id="Fill-62" fill="#323232"></path>
                    <path d="M111.173245,25.1842579 L128.433695,25.1842579 C128.063544,23.4351058 127.075524,21.8669964 125.47533,20.6024819 C123.872289,19.3351822 122.084173,18.733563 120.173622,18.733563 C115.919726,18.733563 112.343493,21.507696 111.173245,25.1842579 M128.986075,14.6921301 C131.451854,16.6223251 133.23997,18.8533297 134.350425,21.385144 C135.458032,23.9782342 136.01326,26.5100485 136.01326,29.1031387 L136.01326,31.5151862 L111.05081,31.5151862 C111.976189,36.339281 115.797292,39.2331809 120.296056,39.2331809 C124.1798,39.2331809 127.138165,38.0884332 129.048716,35.7961526 L134.843011,40.138395 C133.672763,41.8262712 131.63693,43.2718285 128.86364,44.5391282 C126.02771,45.806428 123.19178,46.4080472 120.296056,46.4080472 C116.782464,46.4080472 113.698817,45.5028331 111.05081,43.6951901 C108.399956,41.9460379 106.549198,39.7763094 105.37895,37.1832191 C104.208702,34.6514049 103.593681,31.9970386 103.593681,29.1644147 C103.593681,24.7024055 105.131233,20.6609727 108.277521,17.1041776 C111.420962,13.5473824 115.42714,11.7397395 120.296056,11.7982303 C123.561932,11.7982303 126.460503,12.7647204 128.986075,14.6921301" id="Fill-63" fill="#323232"></path>
                    <path d="M146.063158,45.5025545 L153.460494,45.5025545 L153.460494,12.6418898 L146.063158,12.6418898 L146.063158,45.5025545 Z M146.678179,2.15254726 C148.403655,0.464671105 151.239585,0.464671105 152.96506,2.15254726 C154.630742,3.84042341 154.630742,6.61455649 152.96506,8.30243264 C151.239585,9.99030879 148.403655,9.99030879 146.678179,8.30243264 C144.952704,6.61455649 144.952704,3.84042341 146.678179,2.15254726 L146.678179,2.15254726 Z" id="Fill-64" fill="#00A0BE"></path>
                    <path d="M166.649278,5.10633052 L173.861538,5.10633052 L173.861538,12.6432824 L182.551557,12.6432824 L182.551557,19.6983819 L173.861538,19.6983819 L173.861538,36.2178431 C173.861538,38.3290809 174.661634,39.3540618 176.202034,39.3540618 C177.249848,39.3540618 178.237868,38.8109333 178.608019,38.3290809 C178.975323,37.8472285 179.655833,36.9420144 179.715626,36.7609715 L185.44728,40.9806619 C182.429122,44.8410519 179.900702,46.3478853 176.202034,46.3478853 C170.718097,46.3478853 166.649278,42.9108569 166.649278,36.8222476 L166.649278,19.6983819 L162.580458,19.6983819 L162.580458,12.6432824 L166.649278,12.6432824 L166.649278,5.10633052 Z" id="Fill-65" fill="#00A0BE"></path>
                    <path d="M195.311819,42.1276378 C196.792425,43.6344712 195.741764,46.1077946 193.586343,46.1077946 C192.290813,46.1077946 191.242999,45.0828137 191.242999,43.815514 C191.242999,41.7042761 193.771419,40.6792952 195.311819,42.1276378" id="Fill-66" fill="#323232"></path>
                    <path d="M213.063716,38.9916976 C215.777212,41.7045547 219.105728,43.0916212 223.111906,43.0916212 C227.300313,43.0916212 230.62883,41.5235119 233.157249,38.4485692 L235.74831,40.4400402 C232.602022,44.358921 228.350974,46.3476067 223.111906,46.3476067 C218.240143,46.3476067 214.174171,44.6597306 210.783013,41.2839783 C207.394703,37.9667167 205.66638,33.8667931 205.66638,29.1039743 C205.66638,24.3411555 207.394703,20.2412319 210.783013,16.8626943 C214.174171,13.486942 218.240143,11.7990658 223.111906,11.7990658 C227.918182,11.7990658 231.92436,13.548218 235.067801,17.1050131 L232.479587,19.0936989 C230.013809,16.3808419 226.870368,15.0550514 223.111906,15.0550514 C219.165522,15.0550514 215.837005,16.4421179 213.063716,19.1549749 C210.290427,21.929108 208.932256,25.2435843 208.932256,29.1039743 C208.932256,33.0228551 210.290427,36.2788406 213.063716,38.9916976" id="Fill-67" fill="#323232"></path>
                    <path d="M246.102018,29.1034172 C246.102018,33.022298 247.457342,36.2782835 250.233478,38.9911406 C252.944126,41.7039976 256.272643,43.0910642 260.278821,43.0910642 C264.285,43.0910642 267.613516,41.7039976 270.386805,38.9911406 C273.160094,36.2782835 274.518266,33.022298 274.518266,29.1034172 C274.518266,25.2458125 273.160094,21.928551 270.386805,19.1544179 C267.613516,16.3802848 264.225206,14.9932183 260.278821,14.9932183 C256.335284,14.9932183 253.006767,16.3802848 250.233478,19.0931419 C247.457342,21.8672749 246.102018,25.1845365 246.102018,29.1034172 M247.949928,16.8036465 C251.341085,13.4278942 255.409905,11.7372328 260.278821,11.7372328 C265.147737,11.7372328 269.279198,13.4278942 272.667508,16.8036465 C276.058665,20.2406748 277.784141,24.3405984 277.784141,29.1034172 C277.784141,33.8662361 276.058665,37.9661597 272.667508,41.2834212 C269.279198,44.6591735 265.147737,46.3470497 260.278821,46.3470497 C255.409905,46.3470497 251.341085,44.6591735 247.949928,41.2834212 C244.561618,37.9661597 242.836142,33.8662361 242.836142,29.1034172 C242.836142,24.2793224 244.561618,20.1793988 247.949928,16.8036465" id="Fill-68" fill="#323232"></path>
                    <polygon id="Fill-69" fill="#323232" points="16.9870504 46.4684876 0.222033618 12.644118 8.17459677 12.644118 16.9870504 31.3333077 25.7397103 12.644118 33.7520671 12.644118"></polygon>
                    <path d="M40.9031099,45.5025545 L48.2975984,45.5025545 L48.2975984,12.6418898 L40.9031099,12.6418898 L40.9031099,45.5025545 Z M41.5209782,2.15254726 C43.2464538,0.464671105 46.0823839,0.464671105 47.8078595,2.15254726 C49.4735413,3.84042341 49.4735413,6.61455649 47.8078595,8.30243264 C46.0823839,9.99030879 43.2464538,9.99030879 41.5209782,8.30243264 C39.7926553,6.61455649 39.7926553,3.84042341 41.5209782,2.15254726 L41.5209782,2.15254726 Z" id="Fill-70" fill="#323232"></path>
                    <path d="M70.2450213,36.5802072 C72.2182136,38.630169 74.6839923,39.6551499 77.6395098,39.6551499 C80.600722,39.6551499 83.0665006,38.630169 85.0994867,36.5189312 C87.1324728,34.4689694 88.1204926,31.9984312 88.1204926,29.0432553 C88.1204926,26.0880794 87.1324728,23.5562652 85.0994867,21.4450274 C83.0665006,19.3365748 80.600722,18.3115939 77.6395098,18.3115939 C74.806427,18.3115939 72.4004421,19.3365748 70.367456,21.4450274 C68.3344699,23.5562652 67.2866564,26.0880794 67.2866564,29.0432553 C67.2866564,31.9984312 68.2718289,34.5302454 70.2450213,36.5802072 L70.2450213,36.5802072 Z M67.0389396,45.5042257 L60.1370373,45.5042257 L60.1370373,0.282514173 L67.4090911,0.282514173 L67.4090911,16.7434846 C69.689794,13.6685419 73.6959724,11.7383469 77.8872266,11.7383469 C82.7589901,11.7383469 86.8876033,13.426223 90.2759134,16.7434846 C93.6670708,20.0579608 95.3327527,24.1578844 95.3327527,29.0432553 C95.3327527,33.987117 93.6670708,38.0870406 90.3385544,41.4043021 C86.947397,44.7187784 82.8187838,46.3481638 77.8872266,46.3481638 C73.7586134,46.3481638 69.689794,44.4792448 67.4090911,41.4043021 L67.0389396,45.5042257 Z" id="Fill-71" fill="#323232"></path>
                    <path d="M111.173245,25.1842579 L128.433695,25.1842579 C128.063544,23.4351058 127.075524,21.8669964 125.47533,20.6024819 C123.872289,19.3351822 122.084173,18.733563 120.173622,18.733563 C115.919726,18.733563 112.343493,21.507696 111.173245,25.1842579 M128.986075,14.6921301 C131.451854,16.6223251 133.23997,18.8533297 134.350425,21.385144 C135.458032,23.9782342 136.01326,26.5100485 136.01326,29.1031387 L136.01326,31.5151862 L111.05081,31.5151862 C111.976189,36.339281 115.797292,39.2331809 120.296056,39.2331809 C124.1798,39.2331809 127.138165,38.0884332 129.048716,35.7961526 L134.843011,40.138395 C133.672763,41.8262712 131.63693,43.2718285 128.86364,44.5391282 C126.02771,45.806428 123.19178,46.4080472 120.296056,46.4080472 C116.782464,46.4080472 113.698817,45.5028331 111.05081,43.6951901 C108.399956,41.9460379 106.549198,39.7763094 105.37895,37.1832191 C104.208702,34.6514049 103.593681,31.9970386 103.593681,29.1644147 C103.593681,24.7024055 105.131233,20.6609727 108.277521,17.1041776 C111.420962,13.5473824 115.42714,11.7397395 120.296056,11.7982303 C123.561932,11.7982303 126.460503,12.7647204 128.986075,14.6921301" id="Fill-72" fill="#323232"></path>
                    <path d="M146.063158,45.5025545 L153.460494,45.5025545 L153.460494,12.6418898 L146.063158,12.6418898 L146.063158,45.5025545 Z M146.678179,2.15254726 C148.403655,0.464671105 151.239585,0.464671105 152.96506,2.15254726 C154.630742,3.84042341 154.630742,6.61455649 152.96506,8.30243264 C151.239585,9.99030879 148.403655,9.99030879 146.678179,8.30243264 C144.952704,6.61455649 144.952704,3.84042341 146.678179,2.15254726 L146.678179,2.15254726 Z" id="Fill-73" fill="#00A0BE"></path>
                    <path d="M166.649278,5.10633052 L173.861538,5.10633052 L173.861538,12.6432824 L182.551557,12.6432824 L182.551557,19.6983819 L173.861538,19.6983819 L173.861538,36.2178431 C173.861538,38.3290809 174.661634,39.3540618 176.202034,39.3540618 C177.249848,39.3540618 178.237868,38.8109333 178.608019,38.3290809 C178.975323,37.8472285 179.655833,36.9420144 179.715626,36.7609715 L185.44728,40.9806619 C182.429122,44.8410519 179.900702,46.3478853 176.202034,46.3478853 C170.718097,46.3478853 166.649278,42.9108569 166.649278,36.8222476 L166.649278,19.6983819 L162.580458,19.6983819 L162.580458,12.6432824 L166.649278,12.6432824 L166.649278,5.10633052 Z" id="Fill-74" fill="#00A0BE"></path>
                    <path d="M195.311819,42.1276378 C196.792425,43.6344712 195.741764,46.1077946 193.586343,46.1077946 C192.290813,46.1077946 191.242999,45.0828137 191.242999,43.815514 C191.242999,41.7042761 193.771419,40.6792952 195.311819,42.1276378" id="Fill-75" fill="#323232"></path>
                    <path d="M213.063716,38.9916976 C215.777212,41.7045547 219.105728,43.0916212 223.111906,43.0916212 C227.300313,43.0916212 230.62883,41.5235119 233.157249,38.4485692 L235.74831,40.4400402 C232.602022,44.358921 228.350974,46.3476067 223.111906,46.3476067 C218.240143,46.3476067 214.174171,44.6597306 210.783013,41.2839783 C207.394703,37.9667167 205.66638,33.8667931 205.66638,29.1039743 C205.66638,24.3411555 207.394703,20.2412319 210.783013,16.8626943 C214.174171,13.486942 218.240143,11.7990658 223.111906,11.7990658 C227.918182,11.7990658 231.92436,13.548218 235.067801,17.1050131 L232.479587,19.0936989 C230.013809,16.3808419 226.870368,15.0550514 223.111906,15.0550514 C219.165522,15.0550514 215.837005,16.4421179 213.063716,19.1549749 C210.290427,21.929108 208.932256,25.2435843 208.932256,29.1039743 C208.932256,33.0228551 210.290427,36.2788406 213.063716,38.9916976" id="Fill-76" fill="#323232"></path>
                    <path d="M246.102018,29.1034172 C246.102018,33.022298 247.457342,36.2782835 250.233478,38.9911406 C252.944126,41.7039976 256.272643,43.0910642 260.278821,43.0910642 C264.285,43.0910642 267.613516,41.7039976 270.386805,38.9911406 C273.160094,36.2782835 274.518266,33.022298 274.518266,29.1034172 C274.518266,25.2458125 273.160094,21.928551 270.386805,19.1544179 C267.613516,16.3802848 264.225206,14.9932183 260.278821,14.9932183 C256.335284,14.9932183 253.006767,16.3802848 250.233478,19.0931419 C247.457342,21.8672749 246.102018,25.1845365 246.102018,29.1034172 M247.949928,16.8036465 C251.341085,13.4278942 255.409905,11.7372328 260.278821,11.7372328 C265.147737,11.7372328 269.279198,13.4278942 272.667508,16.8036465 C276.058665,20.2406748 277.784141,24.3405984 277.784141,29.1034172 C277.784141,33.8662361 276.058665,37.9661597 272.667508,41.2834212 C269.279198,44.6591735 265.147737,46.3470497 260.278821,46.3470497 C255.409905,46.3470497 251.341085,44.6591735 247.949928,41.2834212 C244.561618,37.9661597 242.836142,33.8662361 242.836142,29.1034172 C242.836142,24.2793224 244.561618,20.1793988 247.949928,16.8036465" id="Fill-77" fill="#323232"></path>
                </g>
                <g id="icon">
                    <path d="M47.4920184,32.4407206 L58.2959907,32.4407206 L40.9534974,62.4529728 L23.6110041,32.4407206 L34.4124703,32.4407206 L40.9534974,43.7585397 L47.4920184,32.4407206 Z M46.3534787,71.7994381 L69.0967051,32.4399694 L79.9031835,32.4399694 L51.7567179,81.1491586 L46.3534787,71.7994381 Z" id="Combined-Shape" fill="url(#linearGradient-1)"></path>
                    <path d="M51.7554648,93.5424209 C28.5034919,93.5424209 9.65480809,74.710271 9.65480809,51.4786945 C9.65480809,28.249622 28.5034919,9.41747213 51.7554648,9.41747213 C75.0074378,9.41747213 93.8561216,28.249622 93.8561216,51.4786945 C93.8561216,74.710271 75.0074378,93.5424209 51.7554648,93.5424209 M51.7554648,0.0677516574 C23.338336,0.0677516574 0.301891194,23.086493 0.301891194,51.4786945 C0.301891194,79.8734 23.338336,102.892141 51.7554648,102.892141 C80.1750998,102.892141 103.214051,79.8734 103.214051,51.4786945 C103.214051,23.086493 80.1750998,0.0677516574 51.7554648,0.0677516574" id="Fill-80" fill="url(#linearGradient-2)"></path>
                </g>
            </g>
        </g>
    </g>
</svg>